# xmcd
#
# Track frame offsets:
# 150
# 23337
# 42102
# 61668
# 82496
# 105755
# 120373
# 137807
# 158593
# 172728
# 188761
# 204321
# 223924
# 242841
# 259160
# 278275
#
# Disc length: 3902 seconds
#
#
# Revision: 0
# Processed by: cddbd v1.4PL0 Copyright (c) Steve Scherf et al.
# Submitted via: FreeRIP 2.52 
#
DISCID=c60f3c10
DTITLE=Norah Jones - The Peter Malick Group Featureing NEW YORK CITY
DYEAR=2003
DGENRE=Blues
TTITLE0=New York City
TTITLE1=Strange Transmissions
TTITLE2=Deceptively Yours
TTITLE3=All Your Love
TTITLE4=Heart of Mine
TTITLE5=Things You Don't Have To Do
TTITLE6=New York City (radio edit)
TTITLE7=Love Me Like That
TTITLE8=Deceptively
TTITLE9=Breathe
TTITLE10=Where Are You Now?
TTITLE11=Hotel Paper
TTITLE12=Till I Get Over You
TTITLE13=Everywhere
TTITLE14=The Game Of Love
TTITLE15=It's You
EXTD=
EXTT0=
EXTT1=
EXTT2=
EXTT3=
EXTT4=
EXTT5=
EXTT6=
EXTT7=
EXTT8=
EXTT9=
EXTT10=
EXTT11=
EXTT12=
EXTT13=
EXTT14=
EXTT15=
PLAYORDER=
